<svg xmlns="http://www.w3.org/2000/svg" width="112" height="112" viewBox="0 0 112 112">
    <g fill="none" fill-rule="nonzero">
        <path fill="#3F546C" d="M97.053 82.128c-8.242.01-14.92 6.688-14.93 14.93h-24.26v-14.93h9.331c.495 0 .97-.197 1.32-.547l13.063-13.064c.35-.35.547-.824.547-1.32v-9.331h14.93c1.03 0 1.866-.836 1.866-1.866V29.743c7.82-.985 13.527-7.88 13.034-15.748C111.46 6.127 104.935 0 97.054 0 89.17 0 82.646 6.127 82.152 13.995c-.494 7.867 5.213 14.763 13.034 15.748v24.39H82.124V33.604c0-1.03-.836-1.866-1.866-1.866H57.863V14.94c0-1.03-.835-1.866-1.866-1.866H29.741C28.756 5.255 21.861-.453 13.995.04 6.128.534 0 7.059 0 14.941c0 7.884 6.128 14.408 13.995 14.901 7.866.494 14.761-5.213 15.746-13.034h24.39v14.93h-7.465c-.545 0-1.062.239-1.417.651-4.644 5.412-10.472 11.631-11.988 12.445-.075.022-.148.05-.22.082a1.64 1.64 0 0 0-.259.097 1.747 1.747 0 0 0-.343.232 1.316 1.316 0 0 0-.452.543c-.04.06-.078.122-.11.187a1.83 1.83 0 0 0-.14.693v7.465H14.94c-1.03 0-1.866.836-1.866 1.867v26.257c-7.82.985-13.528 7.88-13.034 15.748C.535 105.872 7.059 112 14.941 112c7.882 0 14.407-6.128 14.9-13.995.494-7.867-5.213-14.763-13.034-15.748V57.866h14.93V80.26c0 1.03.836 1.867 1.866 1.867h20.528v16.796c0 1.03.836 1.866 1.866 1.866h26.617c1.941 7.516 9.315 12.29 16.964 10.986 7.65-1.304 13.026-8.252 12.367-15.985-.658-7.733-7.132-13.672-14.892-13.663zM85.856 14.94c0-6.184 5.013-11.197 11.197-11.197 6.184 0 11.197 5.013 11.197 11.197 0 6.185-5.013 11.198-11.197 11.198-6.181-.006-11.19-5.016-11.197-11.198zM14.941 26.14c-6.184 0-11.197-5.013-11.197-11.198 0-6.184 5.013-11.197 11.197-11.197 6.184 0 11.197 5.013 11.197 11.197-.006 6.182-5.016 11.192-11.197 11.198zm11.197 70.919c0 6.185-5.013 11.198-11.197 11.198-6.184 0-11.197-5.013-11.197-11.198 0-6.184 5.013-11.198 11.197-11.198 6.181.007 11.191 5.017 11.197 11.198zm52.254-42.925h-5.599v3.733h5.599v8.56l-9.331 9.33V47.442l9.33-9.332v16.024zM47.523 35.47h6.608v5.6h3.732v-5.6h17.89l-9.331 9.332H38.947c1.986-1.935 4.733-4.87 8.576-9.332zM35.469 48.534h29.86v29.861h-29.86v-29.86zm61.584 59.722c-6.184 0-11.197-5.013-11.197-11.198 0-6.184 5.013-11.198 11.197-11.198 6.184 0 11.197 5.014 11.197 11.198-.006 6.182-5.016 11.192-11.197 11.198z"/>
        <path fill="#3F546C" d="M97.115 98.183l-4.019-2.83L91 98.673l5.666 3.991c.43.303.959.407 1.462.288a1.9 1.9 0 0 0 1.206-.92L105 92.055 101.763 90l-4.648 8.183zM11.096 95.353L9 98.673l5.666 3.991c.43.303.959.407 1.462.288a1.9 1.9 0 0 0 1.206-.92L23 92.055 19.763 90l-4.648 8.18-4.019-2.827zM98.128 19.951c.505-.12.94-.452 1.206-.92L105 9.056 101.763 7l-4.648 8.18-4.019-2.827L91 15.673l5.666 3.991c.43.303.959.407 1.462.287zM15.115 15.183l-4.019-2.83L9 15.673l5.666 3.991c.43.303.959.407 1.462.288a1.9 1.9 0 0 0 1.206-.92L23 9.055 19.763 7l-4.648 8.183z"/>
        <path fill="#EA4972" d="M57.429 58.75h-2.2A5.576 5.576 0 0 0 50 55h-7.429C39.495 55 37 57.519 37 60.625c0 3.107 2.495 5.625 5.571 5.625h2.2A5.573 5.573 0 0 0 50 70h7.429C60.505 70 63 67.482 63 64.375c0-3.106-2.495-5.625-5.571-5.625zm-16.715 1.875c0-1.035.832-1.875 1.857-1.875H50a5.574 5.574 0 0 0-5.23 3.75h-2.199a1.866 1.866 0 0 1-1.857-1.875zM57.43 66.25H50a5.575 5.575 0 0 0 5.23-3.75h2.199c1.025 0 1.857.84 1.857 1.875a1.866 1.866 0 0 1-1.857 1.875z"/>
    </g>
</svg>
