<svg xmlns="http://www.w3.org/2000/svg" xmlns:xlink="http://www.w3.org/1999/xlink" width="169" height="42" viewBox="0 0 169 42">
    <defs>
        <linearGradient id="b" x1="2.005%" x2="118.177%" y1="48.418%" y2="52.431%">
            <stop offset="0%" stop-color="#DF4C73"/>
            <stop offset="100%" stop-color="#814EBC"/>
        </linearGradient>
        <path id="a" d="M124.296 67.456v12.288c-.47.128-1.205.256-2.208.384a23.483 23.483 0 0 1-2.976.192c-.981 0-1.845-.075-2.592-.224-.747-.15-1.365-.416-1.856-.8-.49-.384-.864-.917-1.12-1.6-.256-.683-.384-1.579-.384-2.688V44.864c0-.896.245-1.59.736-2.08.49-.49 1.163-.885 2.016-1.184 1.45-.512 3.136-.885 5.056-1.12a50.717 50.717 0 0 1 6.144-.352c5.888 0 10.325 1.237 13.312 3.712s4.48 5.824 4.48 10.048c0 2.645-.683 4.907-2.048 6.784-1.365 1.877-2.987 3.328-4.864 4.352 1.536 2.09 3.05 4.053 4.544 5.888 1.493 1.835 2.667 3.499 3.52 4.992-.427 1.493-1.205 2.635-2.336 3.424-1.13.79-2.4 1.184-3.808 1.184-.939 0-1.75-.107-2.432-.32a5.882 5.882 0 0 1-1.792-.896 7.331 7.331 0 0 1-1.408-1.408 18.796 18.796 0 0 1-1.216-1.792l-5.376-8.64h-3.392zm4.032-8.512c1.621 0 2.901-.416 3.84-1.248.939-.832 1.408-2.059 1.408-3.68s-.523-2.848-1.568-3.68c-1.045-.832-2.699-1.248-4.96-1.248-.64 0-1.152.021-1.536.064-.384.043-.81.107-1.28.192v9.6h4.096zm35.185 14.144c.725 0 1.525-.075 2.4-.224.874-.15 1.525-.352 1.952-.608v-5.12l-4.608.384c-1.195.085-2.176.341-2.944.768-.768.427-1.152 1.067-1.152 1.92s.33 1.547.992 2.08c.66.533 1.78.8 3.36.8zM163 47.936c2.304 0 4.405.235 6.304.704 1.898.47 3.52 1.184 4.864 2.144a9.675 9.675 0 0 1 3.104 3.648c.725 1.472 1.088 3.21 1.088 5.216v14.336c0 1.11-.31 2.016-.928 2.72a9.244 9.244 0 0 1-2.208 1.824c-2.774 1.664-6.678 2.496-11.712 2.496-2.262 0-4.3-.213-6.112-.64-1.814-.427-3.371-1.067-4.672-1.92-1.302-.853-2.304-1.941-3.008-3.264-.704-1.323-1.056-2.859-1.056-4.608 0-2.944.874-5.205 2.624-6.784 1.749-1.579 4.458-2.56 8.128-2.944l8.384-.896v-.448c0-1.237-.544-2.123-1.632-2.656-1.088-.533-2.656-.8-4.704-.8-1.622 0-3.2.17-4.736.512-1.536.341-2.923.768-4.16 1.28-.555-.384-1.024-.97-1.408-1.76a5.567 5.567 0 0 1-.576-2.464c0-1.11.266-1.995.8-2.656.533-.661 1.354-1.227 2.464-1.696 1.237-.47 2.698-.81 4.384-1.024a38.059 38.059 0 0 1 4.768-.32zm40.944 31.232c-.597.47-1.472.853-2.624 1.152-1.152.299-2.453.448-3.904.448-1.664 0-3.104-.213-4.32-.64-1.216-.427-2.059-1.11-2.528-2.048-.384-.725-.843-1.739-1.376-3.04a148.627 148.627 0 0 1-1.696-4.352 253.484 253.484 0 0 1-3.68-10.592 150.271 150.271 0 0 1-1.568-5.184c-.47-1.664-.853-3.136-1.152-4.416.597-.597 1.397-1.12 2.4-1.568 1.003-.448 2.101-.672 3.296-.672 1.493 0 2.72.31 3.68.928.96.619 1.675 1.781 2.144 3.488l2.496 9.792c.47 1.92.917 3.659 1.344 5.216.427 1.557.747 2.763.96 3.616h.32c.81-3.157 1.664-6.656 2.56-10.496.896-3.84 1.707-7.616 2.432-11.328a10.169 10.169 0 0 1 2.464-.896c.917-.213 1.803-.32 2.656-.32 1.493 0 2.752.32 3.776.96 1.024.64 1.536 1.75 1.536 3.328 0 .683-.16 1.675-.48 2.976a98.947 98.947 0 0 1-2.944 9.632 220.036 220.036 0 0 1-2.016 5.376 134.1 134.1 0 0 1-2.016 4.896c-.661 1.515-1.248 2.763-1.76 3.744zm29.105 1.856c-2.518 0-4.854-.352-7.008-1.056-2.155-.704-4.032-1.76-5.632-3.168-1.6-1.408-2.859-3.179-3.776-5.312-.918-2.133-1.376-4.63-1.376-7.488 0-2.816.458-5.237 1.376-7.264.917-2.027 2.122-3.69 3.616-4.992a14.454 14.454 0 0 1 5.12-2.88 19.084 19.084 0 0 1 5.888-.928c2.261 0 4.32.341 6.176 1.024 1.856.683 3.456 1.621 4.8 2.816a12.533 12.533 0 0 1 3.136 4.288c.746 1.664 1.12 3.477 1.12 5.44 0 1.45-.406 2.56-1.216 3.328-.811.768-1.942 1.259-3.392 1.472l-15.808 2.368c.469 1.408 1.429 2.464 2.88 3.168 1.45.704 3.114 1.056 4.992 1.056 1.749 0 3.402-.224 4.96-.672 1.557-.448 2.826-.97 3.808-1.568.682.427 1.258 1.024 1.728 1.792.469.768.704 1.579.704 2.432 0 1.92-.896 3.35-2.688 4.288-1.366.725-2.902 1.216-4.608 1.472a32.454 32.454 0 0 1-4.8.384zm-1.792-25.152c-1.024 0-1.91.17-2.656.512-.747.341-1.355.779-1.824 1.312a5.448 5.448 0 0 0-1.056 1.792 7.379 7.379 0 0 0-.416 2.016l10.944-1.792c-.128-.853-.598-1.707-1.408-2.56-.811-.853-2.006-1.28-3.584-1.28zm39.088 4.416c0-1.323-.373-2.293-1.12-2.912-.746-.619-1.76-.928-3.04-.928-.853 0-1.696.107-2.528.32-.832.213-1.546.533-2.144.96v22.208c-.426.128-1.098.256-2.016.384-.917.128-1.866.192-2.848.192-.938 0-1.781-.064-2.528-.192-.746-.128-1.376-.384-1.888-.768s-.906-.907-1.184-1.568c-.277-.661-.416-1.525-.416-2.592v-19.2c0-1.152.246-2.09.736-2.816.49-.725 1.163-1.387 2.016-1.984 1.45-1.024 3.275-1.856 5.472-2.496 2.198-.64 4.64-.96 7.328-.96 4.822 0 8.534 1.056 11.136 3.168 2.603 2.112 3.904 5.045 3.904 8.8v20.032c-.426.128-1.098.256-2.016.384-.917.128-1.866.192-2.848.192-.938 0-1.781-.064-2.528-.192-.746-.128-1.376-.384-1.888-.768s-.906-.907-1.184-1.568c-.277-.661-.416-1.525-.416-2.592V60.288z"/>
    </defs>
    <g fill="none" fill-rule="nonzero" transform="translate(-113 -40)">
        <use fill="#FFF" xlink:href="#a"/>
        <use fill="url(#b)" xlink:href="#a"/>
    </g>
</svg>
