<svg xmlns="http://www.w3.org/2000/svg" width="94" height="114" viewBox="0 0 94 114">
    <g fill="none" fill-rule="nonzero">
        <path fill="#EA4972" d="M85 77.69v-4.38c0-2.376-1.87-4.31-4.17-4.31H44.17c-2.3 0-4.17 1.934-4.17 4.31v4.38c0 2.377 1.87 4.31 4.17 4.31h36.66c2.3 0 4.17-1.933 4.17-4.31zm-3.353-4.38v4.38c0 .466-.367.845-.817.845h-5.057v-6.07h5.057c.45 0 .817.379.817.845zm-9.227 5.225h-5.874v-6.07h5.874v6.07zm-29.067-.845v-4.38c0-.466.367-.845.817-.845h19.022v6.07H44.17c-.45 0-.817-.379-.817-.845z"/>
        <path fill="#3F546C" d="M34 75.45v.1c0 .8.672 1.45 1.5 1.45.829 0 1.5-.65 1.5-1.45v-.1c0-.8-.671-1.45-1.5-1.45-.828 0-1.5.65-1.5 1.45zM80.83 51c2.3 0 4.17-1.933 4.17-4.31v-4.38c0-2.376-1.87-4.31-4.17-4.31H44.17c-2.3 0-4.17 1.934-4.17 4.31v4.38c0 2.377 1.87 4.31 4.17 4.31h36.66zm-14.284-3.465v-6.07h5.874v6.07h-5.874zm15.1-5.225v4.38c0 .466-.366.845-.816.845h-5.057v-6.07h5.057c.45 0 .817.379.817.845zm-38.293 4.38v-4.38c0-.466.367-.845.817-.845h19.022v6.07H44.17c-.45 0-.817-.379-.817-.845zM37 44.55v-.1c0-.8-.671-1.45-1.5-1.45-.828 0-1.5.65-1.5 1.45v.1c0 .8.672 1.45 1.5 1.45.829 0 1.5-.65 1.5-1.45z"/>
        <path fill="#3F546C" d="M89.863 26.69c2.281 0 4.137-1.865 4.137-4.155V4.154C94 1.863 92.144 0 89.863 0H40.199c-.92 0-1.663.748-1.663 1.67 0 .922.744 1.67 1.663 1.67h49.664c.447 0 .81.365.81.814v18.381a.814.814 0 0 1-.81.814H4.137a.814.814 0 0 1-.81-.814V4.154c0-.449.363-.814.81-.814h7.739V6.14c0 .922.744 1.67 1.663 1.67.918 0 1.663-.748 1.663-1.67V3.34h3.6V6.14c0 .922.746 1.67 1.664 1.67.919 0 1.663-.748 1.663-1.67V3.34h3.601V6.14c0 .922.745 1.67 1.663 1.67.919 0 1.664-.748 1.664-1.67V3.34h3.899c.918 0 1.663-.748 1.663-1.67 0-.922-.745-1.67-1.663-1.67H4.137C1.857 0 0 1.863 0 4.154v18.381c0 2.29 1.856 4.154 4.137 4.154h41.2v4.36h-41.2C1.856 31.05 0 32.913 0 35.203v18.381c0 2.291 1.856 4.154 4.137 4.154h12.408c.918 0 1.663-.747 1.663-1.67 0-.921-.745-1.67-1.663-1.67H4.137a.813.813 0 0 1-.81-.814v-18.38c0-.45.363-.815.81-.815h7.739v2.802c0 .922.744 1.67 1.663 1.67.918 0 1.663-.748 1.663-1.67v-2.802h3.6v2.802c0 .921.746 1.67 1.664 1.67.919 0 1.663-.749 1.663-1.67v-2.802h3.601v2.802c0 .921.745 1.67 1.663 1.67.919 0 1.664-.749 1.664-1.67v-2.802h60.806c.447 0 .81.365.81.814v18.381a.814.814 0 0 1-.81.815H23.788c-.92 0-1.663.748-1.663 1.67 0 .922.744 1.67 1.663 1.67h21.549v4.36h-41.2C1.856 62.098 0 63.961 0 66.251v18.382c0 2.29 1.856 4.154 4.137 4.154h41.2v10.387a7.511 7.511 0 0 0-5.625 5.647H1.663c-.918 0-1.663.748-1.663 1.67 0 .923.745 1.67 1.663 1.67h38.048C40.47 111.5 43.45 114 47 114c3.55 0 6.53-2.5 7.289-5.838h38.048c.918 0 1.663-.747 1.663-1.67 0-.922-.745-1.67-1.663-1.67H54.289a7.514 7.514 0 0 0-5.626-5.647V88.788h23.133c.918 0 1.663-.748 1.663-1.67 0-.922-.745-1.67-1.663-1.67H4.137a.814.814 0 0 1-.81-.814V66.252c0-.448.363-.814.81-.814h7.739v2.802c0 .922.744 1.67 1.663 1.67.918 0 1.663-.748 1.663-1.67v-2.802h3.6v2.802c0 .922.746 1.67 1.664 1.67.919 0 1.663-.748 1.663-1.67v-2.802h3.601v2.802c0 .922.745 1.67 1.663 1.67.919 0 1.664-.748 1.664-1.67v-2.802h60.806c.447 0 .81.366.81.814v18.382a.814.814 0 0 1-.81.814H79.038c-.918 0-1.663.748-1.663 1.67 0 .922.745 1.67 1.663 1.67h10.825c2.281 0 4.137-1.863 4.137-4.154V66.252c0-2.29-1.856-4.154-4.137-4.154h-41.2v-4.36h41.2c2.281 0 4.137-1.863 4.137-4.154v-18.38c0-2.29-1.856-4.155-4.137-4.155h-41.2v-4.36m2.488 79.803c0 2.298-1.862 4.168-4.151 4.168-2.289 0-4.15-1.869-4.15-4.168 0-2.298 1.861-4.167 4.15-4.167 2.289 0 4.151 1.87 4.151 4.167z"/>
        <path fill="#3F546C" d="M80.83 20c2.3 0 4.17-1.934 4.17-4.31v-4.38C85 8.933 83.13 7 80.83 7H44.17C41.87 7 40 8.933 40 11.31v4.38c0 2.376 1.87 4.31 4.17 4.31h36.66zm-14.284-3.465v-6.07h5.874v6.07h-5.874zm15.1-5.225v4.38c0 .466-.366.845-.816.845h-5.057v-6.07h5.057c.45 0 .817.379.817.845zm-38.293 4.38v-4.38c0-.466.367-.845.817-.845h19.022v6.07H44.17c-.45 0-.817-.379-.817-.845zM34 13.55c0 .8.672 1.45 1.5 1.45.829 0 1.5-.65 1.5-1.45v-.1c0-.8-.671-1.45-1.5-1.45-.828 0-1.5.65-1.5 1.45v.1z"/>
    </g>
</svg>
