<svg xmlns="http://www.w3.org/2000/svg" width="117" height="117" viewBox="0 0 117 117">
    <g fill="none" fill-rule="nonzero">
        <path fill="#3F546C" d="M105.519 0H11.482C5.151 0 0 5.158 0 11.5V72.74c0 6.397 5.198 11.602 11.587 11.602h24.95l-2.308 9.678h-4.805c-4.992 0-9.054 4.067-9.054 9.066v3.125c0 .96.778 1.74 1.737 1.74h17l-.758 7.123A1.74 1.74 0 0 0 40.076 117h69.45a1.736 1.736 0 0 0 1.729-1.92l-1.325-12.764c-.099-.956-.95-1.651-1.907-1.551a1.74 1.74 0 0 0-1.55 1.91l1.127 10.845H82.085l-3.941-36.97a1.737 1.737 0 0 0-1.727-1.554H57.263l1.55-14.928h7.371v3.827c0 .96.779 1.74 1.738 1.74.96 0 1.738-.78 1.738-1.74v-3.827h21.545v3.827a1.739 1.739 0 0 0 3.475 0v-3.827h7.372l3.81 36.72a1.738 1.738 0 1 0 3.457-.36l-1.286-12.387c5.15-1.201 8.967-5.858 8.967-11.3V11.5C117 5.158 111.85 0 105.519 0zm-65.41 84.343h1.515l-1.03 9.678h-2.792l2.307-9.678zm-16.264 20.13v-1.386c0-3.08 2.502-5.586 5.58-5.586h10.797l-.743 6.971H23.845zm54.744 9.047H42.01l3.736-35.045h29.109l3.735 35.045zM69.66 56.588v-4.175c0-5.948 4.832-10.787 10.773-10.787 5.94 0 10.772 4.84 10.772 10.787v4.175H69.66zm25.021 0v-4.175c0-7.867-6.392-14.266-14.248-14.266-7.856 0-14.248 6.4-14.248 14.266v4.175h-8.938c-.89 0-1.636.674-1.728 1.56L54.305 69.84H24.357c-.96 0-1.737.779-1.737 1.74 0 .96.777 1.74 1.737 1.74h29.586l-.174 1.677h-9.586c-.888 0-1.633.67-1.728 1.555l-.46 4.312H11.587c-4.278 0-7.791-3.334-8.089-7.543h15.066c.96 0 1.737-.779 1.737-1.74 0-.96-.777-1.74-1.737-1.74H3.475V11.5c0-4.423 3.592-8.02 8.007-8.02h94.037c4.415 0 8.007 3.597 8.007 8.02v58.34h-6.965l-1.214-11.692a1.739 1.739 0 0 0-1.728-1.56h-8.938zm12.99 23.954l-.75-7.223h6.582c-.244 3.41-2.623 6.287-5.832 7.223z"/>
        <path fill="#EA4972" d="M54.92 21.865H41.09v-5.202c0-3.122-2.508-5.663-5.59-5.663s-5.59 2.54-5.59 5.663v5.202H16.08c-2.25 0-4.08 1.854-4.08 4.132v2.83c0 1.828 1.18 3.38 2.807 3.924l2.343 18.093c.455 3.51 3.432 6.156 6.925 6.156h22.85c3.493 0 6.47-2.646 6.925-6.156l2.343-18.093A4.135 4.135 0 0 0 59 28.826v-2.829c0-2.278-1.831-4.132-4.08-4.132zm0 3.467c.363 0 .657.298.657.665v2.83a.662.662 0 0 1-.657.666H41.09v-4.161h13.83zm-21.588-8.669c0-1.21.973-2.196 2.168-2.196 1.195 0 2.167.985 2.167 2.196v18.724c0 1.21-.972 2.196-2.167 2.196-1.195 0-2.168-.985-2.168-2.196V16.663zm-17.91 9.334c0-.367.295-.665.658-.665h13.83v4.16H16.08a.663.663 0 0 1-.658-.666v-2.829zm35.034 24.396c-.231 1.79-1.75 3.14-3.531 3.14h-22.85c-1.782 0-3.3-1.35-3.532-3.14L18.286 32.96H29.91v2.427c0 3.123 2.508 5.663 5.59 5.663 3.083 0 5.59-2.54 5.59-5.663V32.96h11.625l-2.26 17.433z"/>
        <path fill="#3F546C" d="M54.396 91v-7.302a1.697 1.697 0 1 0-3.396 0V91c0 4.963 4.037 9 9 9s9-4.037 9-9v-7.302a1.697 1.697 0 1 0-3.396 0V91A5.61 5.61 0 0 1 60 96.604 5.61 5.61 0 0 1 54.396 91zM75.245 17h-7.49c-.97 0-1.755.896-1.755 2 0 1.105.785 2 1.755 2h7.49c.97 0 1.755-.895 1.755-2 0-1.104-.785-2-1.755-2zM81.765 21h24.47c.975 0 1.765-.895 1.765-2 0-1.104-.79-2-1.764-2h-24.47C80.79 17 80 17.896 80 19c0 1.105.79 2 1.765 2zM75.245 26h-7.49c-.97 0-1.755.895-1.755 2 0 1.104.785 2 1.755 2h7.49c.97 0 1.755-.896 1.755-2 0-1.105-.785-2-1.755-2zM108 28c0-1.105-.79-2-1.764-2h-24.47C80.79 26 80 26.895 80 28c0 1.104.79 2 1.765 2h24.47c.975 0 1.765-.896 1.765-2z"/>
    </g>
</svg>
