<svg xmlns="http://www.w3.org/2000/svg" width="13" height="12" viewBox="0 0 13 12">
    <path fill="#EA4972" fill-opacity=".5" fill-rule="evenodd" d="M7.805.779l.88 1.712c.214.412.623.698 1.097.764l1.97.275c1.194.167 1.67 1.574.807 2.382l-1.426 1.334c-.343.32-.5.783-.418 1.235l.336 1.883c.204 1.14-1.044 2.01-2.111 1.473l-1.763-.89a1.51 1.51 0 0 0-1.355 0l-1.762.89c-1.068.538-2.315-.332-2.112-1.473l.337-1.883a1.361 1.361 0 0 0-.418-1.235L.44 5.912c-.864-.808-.387-2.215.806-2.382l1.97-.275a1.453 1.453 0 0 0 1.096-.764L5.194.78C5.73-.26 7.271-.26 7.804.779z"/>
</svg>
