<svg xmlns="http://www.w3.org/2000/svg" width="13" height="12" viewBox="0 0 13 12">
    <path fill="#D8D8D8" fill-rule="evenodd" d="M7.805.779l.881 1.712c.212.412.622.698 1.096.764l1.97.275c1.194.167 1.67 1.574.807 2.382l-1.426 1.334c-.342.32-.5.783-.419 1.235l.338 1.883c.203 1.14-1.044 2.01-2.112 1.473l-1.762-.89a1.51 1.51 0 0 0-1.355 0l-1.762.89c-1.068.538-2.316-.332-2.112-1.473l.336-1.883a1.36 1.36 0 0 0-.418-1.235L.44 5.912c-.864-.808-.387-2.215.807-2.382l1.97-.275a1.453 1.453 0 0 0 1.096-.764L5.195.78C5.73-.26 7.271-.26 7.805.779z"/>
</svg>
