<svg xmlns="http://www.w3.org/2000/svg" width="16" height="16" viewBox="0 0 16 16">
    <path fill="#D8D8D8" fill-rule="evenodd" d="M9.09 1.849l1.02 2.041c.25.491.73.831 1.28.91l2.3.327c1.39.199 1.94 1.876.94 2.839l-1.66 1.589c-.4.382-.59.933-.49 1.472l.39 2.244c.24 1.359-1.22 2.396-2.46 1.755l-2.06-1.06a1.717 1.717 0 0 0-1.575 0l-2.054 1.06c-1.245.641-2.7-.396-2.462-1.755l.392-2.244a1.641 1.641 0 0 0-.488-1.472L.502 7.966c-1.007-.963-.452-2.64.94-2.839L3.739 4.8a1.695 1.695 0 0 0 1.277-.91l1.027-2.041C6.666.612 8.46.612 9.09 1.849z"/>
</svg>
