<svg xmlns="http://www.w3.org/2000/svg" width="31" height="20" viewBox="0 0 31 20">
    <g fill="none" fill-rule="nonzero">
        <path fill="#41479B" d="M30.465 20H.535A.53.53 0 0 1 0 19.474V.526C0 .236.24 0 .535 0h29.93A.53.53 0 0 1 31 .526v18.948a.53.53 0 0 1-.535.526z"/>
        <path fill="#F5F5F5" d="M31 .526A.53.53 0 0 0 30.465 0h-2.39l-9.903 6.388V0h-5.345v6.388L2.926 0H.535A.53.53 0 0 0 0 .526v1.362l8.495 5.48H0v5.264h8.495L0 18.112v1.362c0 .29.24.526.535.526h2.39l9.903-6.388V20h5.344v-6.388L28.074 20h2.391a.53.53 0 0 0 .535-.526v-1.362l-8.495-5.48H31V7.368h-8.495L31 1.888V.526z"/>
        <g fill="#FF4B55">
            <path d="M30.94 8.424H17.07V.016h-3.2v8.408H0v3.152h13.87v8.408h3.2v-8.408h13.87z"/>
            <path d="M10.814 12.627L.015 19.532c.038.254.25.452.518.452h.735l11.505-7.357h-1.96zM20.932 12.627h-1.96l11.489 7.346a.523.523 0 0 0 .479-.515v-.432l-10.008-6.399zM0 1.122l9.776 6.25h1.96L.31.069A.523.523 0 0 0 0 .542v.58zM20.097 7.373L30.92.452a.524.524 0 0 0-.515-.436h-.764L18.137 7.373h1.96z"/>
        </g>
    </g>
</svg>
