<svg xmlns="http://www.w3.org/2000/svg" width="123" height="118" viewBox="0 0 123 118">
    <g fill="none" fill-rule="nonzero">
        <path fill="#FC245B" d="M48.057 41.211c0-1.056-1.033-1.887-1.836-1.887-.192 0-.421.038-.574.151l-10.063 6.491c-.574.378-.842 1.057-.842 1.548 0 .49.268 1.132.842 1.51l10.063 6.49c.153.114.382.151.574.151.803 0 1.836-.792 1.836-1.849 0-.49-.23-.906-.574-1.094l-8.035-5.208 8.035-5.208c.345-.227.574-.642.574-1.095zM66.577 29.588l-14.08 27.738a1.499 1.499 0 0 0-.116.566c0 .68.613 1.396 1.493 1.396.535 0 1.033-.264 1.262-.717L69.18 30.947c.114-.189.153-.378.153-.604 0-.868-.842-1.434-1.607-1.434-.498 0-.918.188-1.148.679zM73.656 53.816c0 1.057.995 1.85 1.836 1.85a.888.888 0 0 0 .536-.151l10.063-6.491a1.788 1.788 0 0 0 .842-1.51c0-.49-.268-1.17-.842-1.547l-10.063-6.491a.887.887 0 0 0-.535-.151c-.842 0-1.837.83-1.837 1.887 0 .452.23.868.536 1.094l8.073 5.208-8.073 5.208c-.306.188-.536.604-.536 1.094z"/>
        <path fill="#3F546C" d="M116.558.05H6.442C2.89.05 0 2.9 0 6.402v80.461c0 3.504 2.89 6.354 6.442 6.354H49.29a48.709 48.709 0 0 1-5.42 11.7h-3.68c-5.026 0-9.115 4.034-9.115 8.992 0 2.228 1.838 4.04 4.097 4.04h52.656c2.26 0 4.097-1.812 4.097-4.04 0-4.958-4.09-8.991-9.115-8.991h-3.68a48.726 48.726 0 0 1-5.42-11.7h42.848c3.552 0 6.442-2.851 6.442-6.355V6.403c0-3.503-2.89-6.354-6.442-6.354zM6.442 3.603h110.116c1.565 0 2.838 1.255 2.838 2.799v70.059H3.604V6.403c0-1.543 1.273-2.8 2.838-2.8zm81.88 110.306a.49.49 0 0 1-.494.486H35.172a.49.49 0 0 1-.494-.486c0-2.998 2.473-5.437 5.512-5.437h42.62c3.039 0 5.511 2.439 5.511 5.437zm-13.393-8.991H48.071a52.551 52.551 0 0 0 4.977-11.7h16.903a52.563 52.563 0 0 0 4.978 11.7zm41.63-15.255H6.441c-1.565 0-2.838-1.256-2.838-2.8v-6.848h115.792v6.849c0 1.543-1.273 2.8-2.838 2.8z"/>
        <path fill="#3F546C" d="M8.528 72.908h105.944c.995 0 1.802-.796 1.802-1.777V43.468c0-.981-.807-1.777-1.802-1.777s-1.802.796-1.802 1.777v25.886H10.33V43.468c0-.981-.807-1.777-1.802-1.777s-1.802.796-1.802 1.777v27.663c0 .981.807 1.777 1.802 1.777zM8.528 38.137c.995 0 1.802-.795 1.802-1.777V22.105h102.34V36.36c0 .982.807 1.777 1.802 1.777s1.802-.795 1.802-1.777V8.698c0-.982-.807-1.777-1.802-1.777H8.528c-.995 0-1.802.795-1.802 1.777V36.36c0 .982.807 1.777 1.802 1.777zM112.67 10.475v8.075H10.33v-8.075h102.34z"/>
        <g fill="#FC245B">
            <path d="M84.806 16.797c-.921 0-1.671-.836-1.671-1.864s.75-1.864 1.671-1.864c.922 0 1.672.836 1.672 1.864s-.75 1.864-1.672 1.864zM93.967 16.797c-.922 0-1.672-.836-1.672-1.864s.75-1.864 1.672-1.864c.922 0 1.672.836 1.672 1.864s-.75 1.864-1.672 1.864zM103.127 16.797c-.922 0-1.672-.836-1.672-1.864s.75-1.864 1.672-1.864c.922 0 1.672.836 1.672 1.864s-.75 1.864-1.672 1.864z"/>
        </g>
    </g>
</svg>
